# xmcd CD database file
#
# Track frame offsets:
#	150
#	14593
#	32911
#	59507
#	73968
#	90003
#	103178
#	117123
#	151701
#	165927
#	184769
#	198292
#	214882
#	228440
#	243369
#	275141
#	288345
#	305251
#	318339
#	336615
#
# Disc length: 4647 seconds
#
# Revision: 0
# Processed by: cddbd v1.5.2PL0 Copyright (c) Steve Scherf et al.
# Submitted via: NeoAudio 9.9.9
#
DISCID=1e122514
DTITLE=Lester Young - Genius of the Tenor Saxophone [disc 2]
DYEAR=1900
DGENRE=Jazz
TTITLE0=I Can't Believe That You're In Love with Me
TTITLE1=I Cover the Waterfront
TTITLE2=Ad Lib Blues
TTITLE3=In A Little Spanish Town
TTITLE4=Almost Like Being in Love
TTITLE5=Slow Motion Blues
TTITLE6=Jeepers Creepers
TTITLE7=Just You, Just Me
TTITLE8=Can't We Be Friends?
TTITLE9=Mean to Me
TTITLE10=Frenesi
TTITLE11=I Can't Get Started
TTITLE12=To Marvellous for Words
TTITLE13=New DB Blues
TTITLE14=Indiana [Back Home Again in Indiana]
TTITLE15=Thou Swell
TTITLE16=I'm Confessin' That I Love You
TTITLE17=Down 'n Adam
TTITLE18=Peg O' My Heart
TTITLE19=Undercover Girl Blues
EXTD=
EXTT0=
EXTT1=
EXTT2=
EXTT3=
EXTT4=
EXTT5=
EXTT6=
EXTT7=
EXTT8=
EXTT9=
EXTT10=
EXTT11=
EXTT12=
EXTT13=
EXTT14=
EXTT15=
EXTT16=
EXTT17=
EXTT18=
EXTT19=
PLAYORDER=
